# Blender 4.0.2
# www.blender.org
o Asteroid_1
v 0.000000 -0.995057 0.000000
v 0.731972 -0.425607 0.414001
v -0.294414 -0.448185 0.705409
v -0.992002 -0.466640 0.000000
v -0.291567 -0.443851 -0.698587
v 0.735651 -0.427747 -0.416082
v 0.280506 0.427013 0.672086
v -0.784639 0.456231 0.443790
v -0.776892 0.451726 -0.439408
v 0.295445 0.449755 -0.707880
v 0.952232 0.447932 0.000000
v 0.000000 0.984340 0.000000
v -0.183328 -0.903118 0.439250
v 0.462902 -0.871004 0.261816
v 0.294139 -0.553452 0.704725
v 0.899548 -0.523045 0.000000
v 0.457368 -0.860591 -0.258686
v -0.583326 -0.887969 0.000000
v -0.755717 -0.543145 0.427435
v -0.184617 -0.909468 -0.442338
v -0.727956 -0.523193 -0.411733
v 0.283841 -0.534074 -0.680051
v 1.022089 0.000000 0.258529
v 1.042392 0.000000 -0.263664
v 0.000000 0.000000 0.829045
v 0.604275 0.000000 0.647477
v -1.027287 0.000000 0.259844
v -0.641192 0.000000 0.687034
v -0.624293 0.000000 -0.668926
v -1.022796 0.000000 -0.258708
v 0.639408 0.000000 -0.685122
v 0.000000 0.000000 -0.824365
v 0.726635 0.522243 0.410986
v -0.290376 0.546372 0.695710
v -0.910942 0.529670 0.000000
v -0.285667 0.537511 -0.684427
v 0.728834 0.523824 -0.412229
v 0.172789 0.851198 0.413997
v 0.584523 0.889790 0.000000
v -0.444598 0.836563 0.251463
v -0.480117 0.903397 -0.271553
v 0.168215 0.828667 -0.403039
vn 0.1163 -0.9613 0.2498
vn 0.7061 -0.5701 0.4200
vn -0.1790 -0.9753 0.1294
vn -0.1794 -0.9771 -0.1142
vn 0.1432 -0.9588 -0.2453
vn 0.8131 -0.3997 0.4232
vn -0.0418 -0.2401 0.9699
vn -0.8568 -0.2988 0.4202
vn -0.4831 -0.3073 -0.8199
vn 0.5323 -0.3617 -0.7654
vn 0.6685 -0.1934 0.7181
vn -0.2145 -0.1263 0.9685
vn -0.9975 -0.0706 -0.0086
vn -0.2400 -0.1155 -0.9639
vn 0.6974 -0.2625 -0.6669
vn 0.3311 0.5504 0.7664
vn -0.4270 0.6820 0.5937
vn -0.7285 0.6009 -0.3288
vn 0.0655 0.6388 -0.7666
vn 0.7365 0.6129 -0.2863
vn 0.1523 0.9417 -0.3001
vn 0.3995 0.7505 -0.5264
vn 0.3457 0.6559 -0.6710
vn 0.0378 0.9374 -0.3463
vn -0.0524 0.7350 -0.6760
vn -0.4470 0.5545 -0.7019
vn -0.2406 0.9606 0.1391
vn -0.5963 0.7902 0.1415
vn -0.6317 0.7156 0.2982
vn -0.1134 0.9311 0.3468
vn -0.1715 0.7965 0.5798
vn 0.1474 0.5412 0.8279
vn 0.1549 0.9575 0.2433
vn 0.4418 0.7392 0.5083
vn 0.7350 0.6116 0.2928
vn 0.8369 0.3928 -0.3812
vn 0.7033 0.2303 -0.6725
vn 0.4912 0.3350 -0.8040
vn -0.0011 0.2514 -0.9679
vn -0.2398 0.1233 -0.9630
vn -0.4671 0.2700 -0.8420
vn -0.8784 0.3464 -0.3294
vn -0.9775 0.2106 -0.0085
vn -0.8856 0.3463 0.3094
vn -0.4761 0.2925 0.8293
vn -0.2146 0.1224 0.9690
vn 0.0991 0.2853 0.9533
vn 0.4386 0.2834 0.8528
vn 0.6715 0.1693 0.7214
vn 0.8435 0.3611 0.3977
vn 0.2114 0.1126 -0.9709
vn 0.2104 -0.1492 -0.9662
vn -0.0107 -0.2661 -0.9639
vn -0.7128 0.1110 -0.6925
vn -0.7033 -0.1965 -0.6832
vn -0.8169 -0.3200 -0.4799
vn -0.7362 0.1233 0.6654
vn -0.7321 -0.1619 0.6617
vn -0.4435 -0.3087 0.8414
vn 0.2840 0.1609 0.9452
vn 0.2872 -0.0621 0.9559
vn 0.5851 -0.2480 0.7721
vn 0.9837 0.1755 0.0382
vn 0.9687 -0.2456 0.0377
vn 0.8031 -0.4282 -0.4144
vn 0.5114 -0.5644 -0.6480
vn 0.2418 -0.7163 -0.6546
vn -0.0488 -0.4902 -0.8703
vn -0.4056 -0.5105 -0.7582
vn -0.5348 -0.7169 -0.4472
vn -0.6744 -0.6541 -0.3426
vn -0.6926 -0.6718 0.2626
vn -0.4895 -0.7646 0.4194
vn -0.3524 -0.5352 0.7677
vn 0.6927 -0.5941 -0.4089
vn 0.6148 -0.7883 -0.0223
vn 0.2705 -0.9625 -0.0221
vn -0.0919 -0.5195 0.8495
vn 0.2081 -0.7556 0.6211
vn 0.5672 -0.5516 0.6116
vt 0.181819 0.000000
vt 0.227273 0.078731
vt 0.136365 0.078731
vt 0.272728 0.157461
vt 0.318182 0.078731
vt 0.363637 0.157461
vt 0.909091 0.000000
vt 0.954545 0.078731
vt 0.863636 0.078731
vt 0.727273 0.000000
vt 0.772727 0.078731
vt 0.681818 0.078731
vt 0.545455 0.000000
vt 0.590909 0.078731
vt 0.500000 0.078731
vt 0.318182 0.236191
vt 0.090910 0.157461
vt 0.181819 0.157461
vt 0.136365 0.236191
vt 0.818182 0.157461
vt 0.909091 0.157461
vt 0.863636 0.236191
vt 0.636364 0.157461
vt 0.727273 0.157461
vt 0.681818 0.236191
vt 0.454546 0.157461
vt 0.545455 0.157461
vt 0.500000 0.236191
vt 0.227273 0.236191
vt 0.045455 0.236191
vt 0.772727 0.236191
vt 0.590909 0.236191
vt 0.409092 0.236191
vt 0.181819 0.314921
vt 0.272728 0.314921
vt 0.227273 0.393651
vt 0.000000 0.314921
vt 0.090910 0.314921
vt 0.045455 0.393651
vt 0.727273 0.314921
vt 0.818182 0.314921
vt 0.772727 0.393651
vt 0.545455 0.314921
vt 0.636364 0.314921
vt 0.590909 0.393651
vt 0.363637 0.314921
vt 0.454546 0.314921
vt 0.409092 0.393651
vt 0.500000 0.393651
vt 0.454546 0.472382
vt 0.681818 0.393651
vt 0.636364 0.472382
vt 0.863636 0.393651
vt 0.818182 0.472382
vt 0.909091 0.314921
vt 0.136365 0.393651
vt 0.090910 0.472382
vt 0.318182 0.393651
vt 0.272728 0.472382
vt 0.954545 0.236191
vt 1.000000 0.157461
vt 0.409092 0.078731
vt 0.363637 0.000000
s 0
f 1/1/1 14/2/1 13/3/1
f 2/4/2 14/5/2 16/6/2
f 1/7/3 13/8/3 18/9/3
f 1/10/4 18/11/4 20/12/4
f 1/13/5 20/14/5 17/15/5
f 2/4/6 16/6/6 23/16/6
f 3/17/7 15/18/7 25/19/7
f 4/20/8 19/21/8 27/22/8
f 5/23/9 21/24/9 29/25/9
f 6/26/10 22/27/10 31/28/10
f 2/4/11 23/16/11 26/29/11
f 3/17/12 25/19/12 28/30/12
f 4/20/13 27/22/13 30/31/13
f 5/23/14 29/25/14 32/32/14
f 6/26/15 31/28/15 24/33/15
f 7/34/16 33/35/16 38/36/16
f 8/37/17 34/38/17 40/39/17
f 9/40/18 35/41/18 41/42/18
f 10/43/19 36/44/19 42/45/19
f 11/46/20 37/47/20 39/48/20
f 39/48/21 42/49/21 12/50/21
f 39/48/22 37/47/22 42/49/22
f 37/47/23 10/43/23 42/49/23
f 42/45/24 41/51/24 12/52/24
f 42/45/25 36/44/25 41/51/25
f 36/44/26 9/40/26 41/51/26
f 41/42/27 40/53/27 12/54/27
f 41/42/28 35/41/28 40/53/28
f 35/41/29 8/55/29 40/53/29
f 40/39/30 38/56/30 12/57/30
f 40/39/31 34/38/31 38/56/31
f 34/38/32 7/34/32 38/56/32
f 38/36/33 39/58/33 12/59/33
f 38/36/34 33/35/34 39/58/34
f 33/35/35 11/46/35 39/58/35
f 24/33/36 37/47/36 11/46/36
f 24/33/37 31/28/37 37/47/37
f 31/28/38 10/43/38 37/47/38
f 32/32/39 36/44/39 10/43/39
f 32/32/40 29/25/40 36/44/40
f 29/25/41 9/40/41 36/44/41
f 30/31/42 35/41/42 9/40/42
f 30/31/43 27/22/43 35/41/43
f 27/22/44 8/55/44 35/41/44
f 28/30/45 34/38/45 8/37/45
f 28/30/46 25/19/46 34/38/46
f 25/19/47 7/34/47 34/38/47
f 26/29/48 33/35/48 7/34/48
f 26/29/49 23/16/49 33/35/49
f 23/16/50 11/46/50 33/35/50
f 31/28/51 32/32/51 10/43/51
f 31/28/52 22/27/52 32/32/52
f 22/27/53 5/23/53 32/32/53
f 29/25/54 30/31/54 9/40/54
f 29/25/55 21/24/55 30/31/55
f 21/24/56 4/20/56 30/31/56
f 27/22/57 28/60/57 8/55/57
f 27/22/58 19/21/58 28/60/58
f 19/21/59 3/61/59 28/60/59
f 25/19/60 26/29/60 7/34/60
f 25/19/61 15/18/61 26/29/61
f 15/18/62 2/4/62 26/29/62
f 23/16/63 24/33/63 11/46/63
f 23/16/64 16/6/64 24/33/64
f 16/6/65 6/26/65 24/33/65
f 17/15/66 22/27/66 6/26/66
f 17/15/67 20/14/67 22/27/67
f 20/14/68 5/23/68 22/27/68
f 20/12/69 21/24/69 5/23/69
f 20/12/70 18/11/70 21/24/70
f 18/11/71 4/20/71 21/24/71
f 18/9/72 19/21/72 4/20/72
f 18/9/73 13/8/73 19/21/73
f 13/8/74 3/61/74 19/21/74
f 16/6/75 17/62/75 6/26/75
f 16/6/76 14/5/76 17/62/76
f 14/5/77 1/63/77 17/62/77
f 13/3/78 15/18/78 3/17/78
f 13/3/79 14/2/79 15/18/79
f 14/2/80 2/4/80 15/18/80
